<?xml version="1.0" encoding="utf-8"?>
<!-- Generator: Adobe Illustrator 19.0.1, SVG Export Plug-In . SVG Version: 6.00 Build 0)  -->
<svg version="1.1" id="stationary_1_" xmlns="http://www.w3.org/2000/svg" xmlns:xlink="http://www.w3.org/1999/xlink" x="0px"
	 y="0px" viewBox="0 0 128 128" style="enable-background:new 0 0 128 128;" xml:space="preserve">
<style type="text/css">
	.st0{display:none;}
	.st1{display:inline;fill:#020202;}
	.st2{fill:#020202;}
	.st3{display:inline;}
</style>
<g id="row4_1_">
	<g id="brush" class="st0">
		<path class="st1" d="M91.7,0.1L25,66.7l3.9,3.9c-5.9,1.4-15,5.2-18.2,15.8c-3.9,13.1-3.8,33.7,6.6,41.6c-0.6-2.7,3.8-12,8.8-15.3
			c5.8-3.9,12.6-1.7,17.5-6.6c4.7-4.7,6.1-10.3,6.2-14.6l3.1,3.1L119.6,28L91.7,0.1z M39,102.3c-4.8,2.9-12.7,1.2-17.1,4.6
			c-5.1,4-6.2,9.3-6.2,9.3s-3.2-19.1,1.6-29.9c3.8-8.6,15.5-11.9,15.5-11.9l11.8,11.7C44.6,86.1,44.2,99.1,39,102.3z M60.7,77.5
			l0.2-0.2l-8,8L34.3,66.7L91.7,9.4L110.3,28L68.4,69.8L49.8,51.2l-1.6,1.5l18.6,18.6l-4.7,4.6L43.6,57.4l-1.6,1.5L60.7,77.5z"/>
	</g>
	<g id="book" class="st0">
		<path class="st1" d="M10.3,70.2v4.1c0,0,11.7-8.2,23.8-8.2c12.7,0,25.8,8.2,25.8,8.2v-4.1c0,0-13.2-8.2-26-8.2
			C21.9,61.9,10.3,70.2,10.3,70.2z M10.3,55.8v4.1c0,0,11.7-8.2,23.8-8.2c12.7,0,25.8,8.2,25.8,8.2v-4.1c0,0-13.2-8.2-26-8.2
			C21.9,47.5,10.3,55.8,10.3,55.8z M10.3,41.3v4.1c0,0,11.7-8.2,23.8-8.2c12.7,0,25.8,8.2,25.8,8.2v-4.1c0,0-13.2-8.2-26-8.2
			C21.9,33.1,10.3,41.3,10.3,41.3z M10.3,84.6v4.1c0,0,11.7-8.2,23.8-8.2c12.7,0,25.8,8.2,25.8,8.2v-4.1c0,0-13.2-8.2-26-8.2
			C21.9,76.4,10.3,84.6,10.3,84.6z M97.8,14.5C85.5,14.5,64,26.9,64,26.9S45.9,14.5,33.7,14.5C14.5,14.5,0,26.9,0,26.9v86.6
			c0,0,14.6-14.4,33.9-14.4c9.4,0,30.3,14.4,30.3,14.4S88.3,99,98.6,99c17.1,0,29.4,14.4,29.4,14.4V26.9
			C128,26.9,115.3,14.5,97.8,14.5z M121.8,101.1c0,0-9.6-8.2-23.4-8.2c-10,0-34.4,12.4-34.4,12.4S43.2,92.9,34,92.9
			c-16,0-27.8,8.2-27.8,8.2V31c0,0,11.6-10.3,27.5-10.3C43,20.7,64,33.1,64,33.1s26.3-12.4,33.9-12.4c14,0,23.9,10.3,23.9,10.3
			V101.1z M68.1,55.8v4.1c0,0,11.7-8.2,23.8-8.2c12.7,0,25.8,8.2,25.8,8.2v-4.1c0,0-13.2-8.2-26-8.2C79.7,47.5,68.1,55.8,68.1,55.8z
			 M68.1,41.3v4.1c0,0,11.7-8.2,23.8-8.2c12.7,0,25.8,8.2,25.8,8.2v-4.1c0,0-13.2-8.2-26-8.2C79.7,33.1,68.1,41.3,68.1,41.3z
			 M68.1,70.2v4.1c0,0,11.7-8.2,23.8-8.2c12.7,0,25.8,8.2,25.8,8.2v-4.1c0,0-13.2-8.2-26-8.2C79.7,61.9,68.1,70.2,68.1,70.2z
			 M68.1,84.6v4.1c0,0,11.7-8.2,23.8-8.2c12.7,0,25.8,8.2,25.8,8.2v-4.1c0,0-13.2-8.2-26-8.2C79.7,76.4,68.1,84.6,68.1,84.6z"/>
	</g>
	<g id="stamp" class="st0">
		<path class="st1" d="M88.8,81c0,0-6.4-34.9-4.7-36.7c4.5-4.7,7.3-11.1,7.3-18.1c0-14.4-11.7-26.1-26.1-26.1
			c-14.4,0-26.1,11.7-26.1,26.1c0,7.1,2.9,13.6,7.5,18.3c4.7,4.8-7.5,36.5-7.5,36.5H0v39.1h128V81H88.8z M47,26.2
			c0-10.1,8.2-18.3,18.3-18.3c10.1,0,18.3,8.2,18.3,18.3c0,4.7-2,8.7-4.7,12.2c-0.8,1-1.2,3.2-1.3,6.1H55.2c-0.1-2-0.5-3.4-1.3-4
			C49.5,37.4,47,32,47,26.2z M77.9,54.9H54c0.4-1.8,0.7-3.6,0.9-5.2h22.7C77.7,51.3,77.8,53.1,77.9,54.9z M52.9,60.1h25.4
			C79.3,70.6,81,81,81,81H47C47,81,50.5,70.4,52.9,60.1z M120.2,112.3H7.8V88.8h112.3V112.3z M2.6,127.9h122.8v-5.2H2.6V127.9z"/>
	</g>
	<g id="tape" class="st0">
		<path class="st1" d="M113.5,49.9l-0.4,0.1c-4.8-15.3-19-26.4-35.9-26.4c-10.4,0-19.9,4.2-26.7,11.1c-4.8,1.9-13,4.7-21.9,6.1
			C12.3,43.3,0,42.4,0,42.4V48c0,0,13.3,0.8,29.9-1.8c5.3-0.8,10.4-2.3,14.6-3.6c-3.1,5.5-5,11.8-5,18.6c0,6.6,0.6,10.5,3.1,14.9
			L32,80L20.7,49.9H0v54.5h128V49.9H113.5z M54.6,38.6L54.6,38.6c5.8-5.8,13.8-9.4,22.6-9.4c14.4,0,28,11.3,32,24.4
			c-4.1,1.7-11,4-18.9,6.5C89.8,53.4,84.1,48,77.2,48C69.9,48,64,53.9,64,61.2c0,2.3,0.6,4.5,1.7,6.4c-9.7,2.9-17.3,5-18.3,5.4
			c-2.6-4.6-2.2-6.2-2.2-11.8c0-8.8,3.5-16.7,9.3-22.5C54.5,38.6,54.6,38.6,54.6,38.6z M122.4,98.8H5.6V55.5h11.3l11.3,32l90.4-32
			h3.8V98.8z"/>
	</g>
	<g id="Staple_x5F_remover" class="st0">
		<path class="st1" d="M71.5,26.6L23.2,9.2l-2.1,6.5l47.7,18.5L71.5,26.6z M21.1,15.7l-9.4,43.6l23.6-12.6L80.8,65l-3.7,11.8
			l19.7,5.4l-19.5-6L74,86.9l-48.7,1.9L8.8,65.9l-8.6,44.9l-0.1,0l0,0.4L0,112l0.1,0l-0.1,5.7l51.4,1.2l0.1-5l59.7,2.2l4.2-27.9
			l1.2,0.4L128,53.6L21.1,15.7z M107,108.4l-99.4-2.7l3.3-27.2l10.7,16.8l58.8-1l3.9-15.5l26.9,7.4L107,108.4z M112.3,79.9
			l-26.3-8.4l3.5-10.9L34.4,39.2l-14.3,9.2l5.5-24L119.3,58L112.3,79.9z"/>
	</g>
</g>
<g id="row3_1_">
	<g id="sharpener">
		<path class="st2" d="M105.1,6.9c0-3.8-3.1-6.8-6.9-6.8H29.7c-3.8,0-6.9,3.1-6.9,6.8v34.2c0,0,4.6,16.8,4.6,27.4
			c0,8.5-4.6,29.6-4.6,29.6v22.9c0,3.8,3.1,6.8,6.9,6.8h68.6c3.8,0,6.9-3.1,6.9-6.8V97.7c0,0-4.6-21.3-4.6-30.6
			c0-10.2,4.6-25.7,4.6-25.7V6.9z M66.3,121.1H48V41.2c0-8.8,7.2-16,16-16c0.8,0,1.5,0.1,2.3,0.2V121.1z M80,121.1h-9.1V26.8
			c5.4,2.6,9.1,8,9.1,14.4V121.1z M98.3,43.3c0,0-4.6,13.4-4.6,24.4c0,10.4,4.6,31.3,4.6,31.3v22.1H86.9V41.2
			c0-12.6-10.2-22.8-22.9-22.8c-12.6,0-22.9,10.2-22.9,22.8v79.9H29.7V98.2c0,0,4.6-20.1,4.6-29.7c0-11.5-4.6-25-4.6-25V11.5
			c0-2.5,2-4.6,4.6-4.6h59.4c2.5,0,4.6,2,4.6,4.6V43.3z M57.1,68.6c-3.8,0-6.9,3.1-6.9,6.8c0,3.8,3.1,6.8,6.9,6.8
			c3.8,0,6.9-3.1,6.9-6.8C64,71.6,60.9,68.6,57.1,68.6z"/>
	</g>
	<g id="paper_x5F_glue" class="st0">
		<path class="st1" d="M66.9,119.2v-11.6c0-1.6-1.3-2.9-2.9-2.9c-1.6,0-2.9,1.3-2.9,2.9v11.6c0,1.6,1.3,2.9,2.9,2.9
			C65.6,122.1,66.9,120.8,66.9,119.2z M53.3,119.2v-11.6c0-1.6-1.3-2.9-2.9-2.9c-1.6,0-2.9,1.3-2.9,2.9v11.6c0,1.6,1.3,2.9,2.9,2.9
			C52,122.1,53.3,120.8,53.3,119.2z M86.3,0.1H41.7c-3.2,0-5.8,2.6-5.8,5.8v40.7v54.2v27.1h56.2v-27.1V46.6V5.9
			C92.1,2.7,89.5,0.1,86.3,0.1z M86.3,122.1h-8.7H64H50.4h-8.7v-21.3h44.6V122.1z M86.3,95H41.7v-7.7h44.6V95z M86.3,85.3H41.7v-3.9
			h44.6V85.3z M86.3,79.5H41.7V65.9h44.6V79.5z M86.3,64H41.7v-3.9h44.6V64z M86.3,58.2H41.7v-7.7h44.6V58.2z M86.3,40.8h-5.8v-31
			h-1.9v31h-5.8v-31h-1.9v31H65v-31H63v31h-5.8v-31h-1.9v31h-5.8v-31h-1.9v31h-5.8v-31c0-2.1,1.7-3.9,3.9-3.9h36.8
			c2.1,0,3.9,1.7,3.9,3.9V40.8z M80.5,119.2v-11.6c0-1.6-1.3-2.9-2.9-2.9c-1.6,0-2.9,1.3-2.9,2.9v11.6c0,1.6,1.3,2.9,2.9,2.9
			C79.2,122.1,80.5,120.8,80.5,119.2z"/>
	</g>
	<g id="compass" class="st0">
		<path class="st1" d="M61.4,34.6c-3.5,0-6.4,2.8-6.4,6.4c0,3.5,2.8,6.4,6.4,6.4c3.5,0,6.4-2.8,6.4-6.4
			C67.8,37.4,64.9,34.6,61.4,34.6z M105.4,97.4C95.1,71.2,77.8,31.1,77.1,30.1c-3.4-5-9.2-8.3-15.7-8.3c-8.6,0-15.9,5.7-18.3,13.6
			C42.7,36.7,30.5,76,22.2,103c-4.4,14.2,11.4,18.7,11.4,18.7l-1.6,5.2l3.5,1.1l21.1-68.6c1.5,0.4,3.2,0.6,4.8,0.6
			c2.6,0,5-0.5,7.3-1.4l25.4,64.7l3.4-1.3l-2-5.1C95.5,116.9,110.8,111.3,105.4,97.4z M33.4,115.9c0,0-9.2-1-5.5-13.1
			c6-19.4,14.1-45.6,16.4-53.3c1.4,2.9,3.6,5.3,6.2,7.1l0.7,1.2L33.4,115.9z M61.4,54.5c-7.5,0-13.6-6.1-13.6-13.6
			s6.1-13.6,13.6-13.6S75,33.4,75,40.9S68.9,54.5,61.4,54.5z M95.2,111.2L73.4,55.7c2.5-2,4.4-4.6,5.6-7.5c0,0,13.4,31.3,20.6,49.5
			C104.3,109.5,95.2,111.2,95.2,111.2z M67.8,0.1H55v25.8l6.4-4l6.4,4V0.1z"/>
	</g>
	<g id="ruler_2_" class="st0">
		<path class="st1" d="M26.3,107.4h50.2L26.3,45.7V107.4z M30.9,59.4l36.6,43.4l-36.6,0L30.9,59.4z M10.3,0.1v127.8h107.4L10.3,0.1z
			 M81.1,111.9v9.1H72v-9.1h-4.6v9.1h-9.1v-9.1h-4.6v9.1h-9.1v-9.1H40v9.1h-9.1v-9.1h-4.6v9.1h-9.1V18.4L104,121.1H85.7v-9.1H81.1z"
			/>
	</g>
	<g id="scissor" class="st0">
		<path class="st1" d="M74.7,36.1c5.9,2.5,12.6-0.2,15.1-6c2.5-5.8-0.2-12.6-6-15.1c-5.9-2.5-12.6,0.2-15.1,6
			C66.1,26.8,68.8,33.6,74.7,36.1z M70.3,21.7c2.1-4.9,7.9-7.2,12.8-5.1c5,2.1,7.2,7.9,5.1,12.8c-2.1,4.9-7.9,7.2-12.8,5.1
			C70.4,32.3,68.2,26.6,70.3,21.7z M110.5,51c-7.6-1.1-14.9,2.2-19.3,7.9c-3.1-0.5-8.7-1.3-15.5-2.3c1.8-4.5,3.3-8.2,4.4-10.8
			C87.7,45.5,94.8,41,98,33.5c4.4-10.3-0.3-22.3-10.7-26.8C76.9,2.4,65,7.1,60.5,17.5c-2.9,6.7-1.9,14,2,19.6l-6.8,16.6
			c-13.2-1.9-27.2-4-37.5-5.5C1.7,45.8,0,65.4,0,65.4l48.1,7l-19.6,48.1c0,0,17.8,8.6,24.1-7c4.3-10.5,10.1-25,15.5-38.2l20.3,2.9
			c2.5,6.8,8.6,12,16.2,13.1c11.1,1.6,21.5-6.1,23.1-17.2C129.4,62.9,121.7,52.6,110.5,51z M65.4,19.6c3.3-7.6,12.2-11.2,19.8-7.9
			c7.7,3.3,11.2,12.1,7.9,19.8c-3.3,7.6-12.2,11.2-19.8,7.9C65.6,36.1,62.1,27.2,65.4,19.6z M7.8,61.1c0,0,1.7-8.7,11.8-7.2
			c8.7,1.3,21.2,3.1,33.2,4.8c-1.7,2.6-2.3,5.7-1.5,8.7L7.8,61.1z M48.4,109.4c-3.9,9.6-12.3,6.5-12.3,6.5l17.4-42.8l2,0.3
			c2,1.3,4.4,2,6.7,1.8C57.4,87.4,52,100.5,48.4,109.4z M65.8,70.3c-3.1,2.3-7.6,1.7-9.9-1.4c-2.3-3.1-1.7-7.6,1.4-9.9
			c3.1-2.3,7.6-1.7,9.9,1.4C69.6,63.6,69,68,65.8,70.3z M66.4,55.2c-1.6-0.8-3.3-1.2-5-1.2l5.2-12.7c1.4,1.1,3,2.1,4.7,2.8
			c1.1,0.5,2.2,0.8,3.3,1.1c-0.6,1.4-2.1,5.2-4.3,10.5C69,55.6,67.7,55.4,66.4,55.2z M86.8,72.6l-16.2-2.3c1.6-2.6,2-5.8,1-8.8
			c9.6,1.4,16.4,2.4,16.4,2.4L86.8,72.6z M122.5,73.3c-1.2,8.2-8.8,13.9-17.1,12.7c-8.2-1.2-14-8.8-12.8-17.1
			c1.2-8.2,8.8-13.9,17.1-12.7C118,57.4,123.7,65,122.5,73.3z M109.3,59.7c-6.3-0.9-12.2,3.5-13.1,9.7c-0.9,6.3,3.5,12.1,9.8,13
			c6.3,0.9,12.2-3.5,13.1-9.7C119.9,66.5,115.6,60.6,109.3,59.7z M117.3,72.5c-0.8,5.3-5.7,9-11.1,8.2c-5.3-0.8-9-5.7-8.3-11
			c0.8-5.3,5.7-9,11.1-8.2C114.3,62.2,118,67.2,117.3,72.5z M58.4,60.4c-2.4,1.8-2.8,5.1-1.1,7.4c1.8,2.4,5.1,2.8,7.4,1.1
			c2.4-1.8,2.8-5.1,1.1-7.4C64.1,59.1,60.7,58.7,58.4,60.4z"/>
	</g>
</g>
<g id="row2_1_" class="st0">
	<g id="paper_x5F_clip_1_" class="st3">
		<g id="icon_10_">
			<path class="st2" d="M109.1,75.6H18.9c-6.4,0-11.6,5.2-11.6,11.6v40.7h113.5V87.2C120.7,80.8,115.5,75.6,109.1,75.6z M112,119.2
				H16v-29c0-3.2,2.6-5.8,5.8-5.8h84.4c3.2,0,5.8,2.6,5.8,5.8V119.2z"/>
		</g>
		<g id="icon_11_">
			<path class="st2" d="M62.5,0.1c-0.5,0-0.2,0,0.6,0C63.6,0.1,63.5,0.1,62.5,0.1z M18.9,125h90.2c0,0-9.6-19.1-17.5-40.7
				C81.4,56.1,87.8,43,87.6,43c9.1-2,15.7-8.3,15.7-18.2C103.3,2.7,69,0.4,63.1,0.1c-3.4,0.2-38.4,2.6-38.4,24.7
				c0,8.9,5.4,15,13.1,17.6c6.6,2.2,8.8,5-1.5,42C30.8,104.2,18.9,125,18.9,125z M46.5,35c-7.2,0-13.1-2.9-13.1-10.2
				c0-13.6,25.1-16,29.5-16c7.3,0,31.6,2.4,31.6,16C94.5,32,88.7,35,81.5,35c0,0-9.8,10.7,1.5,52.3c5.1,18.9,14.5,34.9,14.5,34.9
				H30.5c0,0,9.3-16.3,14.5-34.9C56.9,45,46.5,35,46.5,35z"/>
		</g>
	</g>
	<g id="pin" class="st3">
		<path class="st2" d="M118.2,9.6C91.4-16.8,75.5,23.5,75.5,23.5L45.9,47.1l-25.7-5.8c-0.6-0.1-1.3-0.2-1.9-0.2
			c-3.5,0-6.8,1.9-8.4,4.9c-2,3.7-1.5,8.3,1.3,11.1l26.4,26.3L0,120.7l6.7,6.6L44.2,90l26,25.9c1.6,1.6,3.9,2.5,6.3,2.5
			c1.7,0,3.3-0.4,4.8-1.2c3.6-2,5.6-6.3,4.7-10.3l-5.8-25.6l23.7-29.5C103.9,51.8,146.7,37.6,118.2,9.6z M76.8,109
			c0,0-0.1,0-0.1,0.1L18,50.7c0,0,0,0,0-0.1c0,0,0.1-0.1,0.2-0.1l23.3,5.3l30,29.9l5.3,23.2C76.8,108.9,76.7,109,76.8,109z
			 M73.6,74.5L52.7,53.7l26.8-21.4L95,47.7L73.6,74.5z M102.9,42.3L85.1,24.5c0,0,10.1-24.6,26.9-7.8
			C127.9,32.5,102.9,42.3,102.9,42.3z"/>
	</g>
	<g id="pen" class="st3">
		<path class="st2" d="M32.6,88.6l35.8-62l-5.6-3.3L23.7,91l32,18.4l39.1-67.6l-5.6-3.3l-35.8,62L32.6,88.6z M25.2,116.8l-2.5,11.1
			l9-7.1l22.9-9.5l-32-18.4L25.2,116.8z M96.1,2.6C87.3-2.5,76,0.5,70.9,9.3L66,17.8l0.1,0l0,0c-2.5-1.5-11.3-6.5-11.3-6.5L35.2,45
			l5.6,3.3c0,0,8-5.3,8.6-9.4c1.4-10.6,7.7-18.8,7.7-18.8l11.3,6.5l0,0l20.7,11.9l0,0l7.5,4.3l3.3-5.6L98,36.2l4.9-8.4
			C108,18.9,105,7.7,96.1,2.6z M97.3,24.5l-2.7,4.7L73.9,17.3l2.7-4.7c3.3-5.7,10.6-7.7,16.3-4.4C98.6,11.5,100.6,18.8,97.3,24.5z"
			/>
	</g>
	<g id="highlighter" class="st3">
		<path class="st2" d="M41.3,67.4l57.2,52.9l3.2-3.2L44.5,64.2L41.3,67.4z M59.2,27.4L23.7,62.8c0,0-0.7-10.1-3.1-18.8
			C18.1,35,14,27.4,14,27.4l9.7-9.7c0,0,6.6,3.8,15.1,6.2C48,26.4,59.2,27.4,59.2,27.4l4.8-4.8c0,0-12.8-1.8-23.6-5.2
			c-10.1-3.1-18.3-7.7-18.3-7.7l-1.6,1.6L9.2,0L0,16.6l7.6,7.5l6.5-6.4l-8.1,8.1c0,0,5.1,9.7,8.4,20.6c3.1,10,4.5,21.3,4.5,21.3
			L59.2,27.4z M125.3,86.7L67.2,19.3L15.6,70.9l71,54.5c3.6,3.6,9.3,3.6,12.9,0l25.8-25.8C128.9,96,128.9,90.2,125.3,86.7z
			 M118.9,96.3l-22.6,22.6c-1.8,1.8-4.7,1.8-6.5,0l-64.5-48L67.2,29l51.6,60.9C120.7,91.7,120.7,94.6,118.9,96.3z M51.1,58
			l54.9,51.2l3.2-3.2L54.3,54.8L51.1,58z M60.4,48.9l56.4,52.4l3.2-3.2L63.6,45.7L60.4,48.9z"/>
	</g>
	<g id="clip" class="st3">
		<path class="st2" d="M123.6,32.1c-9.1-15.7-29.2-21.1-44.9-12L17.4,55.4l-1.7,1l-1.7,1C0.6,65.1-4,82.1,3.7,95.5
			c7.7,13.3,23.8,16.2,37.1,8.5l8.6-5l-0.7,0.4c10.1-5.8,45.5-26.2,45.5-26.2c9.5-5.5,12.8-17.7,7.3-27.2
			c-5.5-9.5-17.7-12.8-27.2-7.3c0,0-35.9,20.7-45.1,26c-2,1.2,1,6.3,3,5.2c9.2-5.3,45.1-26,45.1-26c6.7-3.8,15.2-1.6,19.1,5.1
			c3.9,6.7,1.6,15.2-5.1,19c0,0-35.5,20.4-45.5,26.2c-2.8,1.6-8,4.6-8,4.6c-10.5,6-22.9,4.2-28.9-6.3c-6.1-10.5-2.5-23.9,8-29.9
			l2.6-1.5l62.1-35.8c12.9-7.4,29.3-3,36.8,9.8c7.4,12.8,3,29.3-9.8,36.7l-61.3,35.3l3,5.2L111.6,77
			C127.3,67.9,132.7,47.8,123.6,32.1z"/>
	</g>
</g>
<g id="row1_1_" class="st0">
	<g id="pencil" class="st3">
		<path class="st2" d="M115.6,60.9L46.5,21.1L0,22.5l21.8,41.3l69.1,39.8c11.8,6.8,26.9,2.8,33.7-9
			C131.5,82.8,127.5,67.7,115.6,60.9z M8.2,27.2l6.6-0.1L11.5,33L8.2,27.2z M29.6,61.7l4.8-8.2l51,29.4l-4.8,8.2L29.6,61.7z
			 M93,69.7l-7.5,13l1.8-3.2l-51-29.4l5.7-9.9l0,0.1L93,69.7z M119.8,91.8c-5.2,9.1-16.9,12.2-26,6.9l19-32.9l-3.3-1.9l-19,32.9
			L83.9,93l19-32.9l-3.3-1.9l-4.8,8.2l-51-29.4l2.8-4.8l1.9-3.4l-3.3-1.9l-19,32.9L13.6,36.9l5.6-9.8l26.1-0.2l67.5,38.9
			C121.9,71.1,125,82.7,119.8,91.8z"/>
	</g>
	<g id="cutter" class="st3">
		<path class="st2" d="M93.2,76.8l10.4,6l-6,10.4l-10.4-6l-2,3.5l0,0l12.1-20.9L71.1,54.8l-2,3.5l-13.9-8L45.1,67.6l13.9,8l-2,3.5
			l26.1,15.1l2-3.5l13.9,8l10.1-17.4l-13.9-8L93.2,76.8z M50.6,66.2l6-10.4l10.4,6l-6,10.4L50.6,66.2z M67.8,80.7l10.1-17.4l-1.7-1
			L66,79.7l-3.5-2l10.1-17.4l8.7,5L71.2,82.7l0.8,0.5L67.8,80.7z M81.7,88.7l-8.7-5L83,66.3l-0.9-0.5l4.4,2.5L76.5,85.7l1.7,1
			l10.1-17.4l3.5,2L81.7,88.7z M120,66.7L48.6,25.6l-3,5.2L7.2,8.7L0,57.9l22.4,12.9l-3,5.2l71.4,41.2c7.7,4.4,17.5,1.8,22-5.9
			l13.1-22.6C130.3,81,127.6,71.2,120,66.7z M44.1,34.6L29.3,60.2l5.1-31.3L44.1,34.6z M5.3,56.3l5.2-41l9.3,5.4l-5.3,41L5.3,56.3z
			 M25,67.6l-8.6-5l0.1-0.8l5.2-40.1l10.7,6.2l-6,37.3L25,67.6z M120.6,85.7l-13.1,22.6c-3.3,5.8-9.7,6-15.5,2.7L27.6,73.8l23.1-40
			l64.4,37.1C121,74.3,123.9,79.9,120.6,85.7z"/>
	</g>
	<g id="stapler" class="st3">
		<path class="st2" d="M110.2,62.8c-3.7-0.2-6.8,2.6-7,6.3c-0.2,3.7,2.6,6.8,6.3,7.1c3.7,0.2,6.8-2.6,7-6.3
			C116.7,66.2,113.9,63,110.2,62.8z M109.6,73.9c-2.5-0.1-4.3-2.2-4.2-4.7c0.1-2.5,2.2-4.3,4.7-4.2c2.5,0.1,4.3,2.2,4.2,4.7
			C114.2,72.2,112.1,74.1,109.6,73.9z M28.7,24.7c0,0-18.3-6.5-21.9,7.5c-2.1,8.2-4.8,25.7-4.8,25.7l54.4,13.6L11.5,58.9V80h78.4
			l22.9,5.7H6.7L0,104.8h128V89.6v-3.8V60.7L28.7,24.7z M15.3,76.2V62.8l61.1,13.3H15.3z M9.6,53.3c0,0,1.7-12.5,2.9-17.1
			c2.6-9.9,14.3-5.8,14.3-5.8l95.5,34.3v17.2L9.6,53.3z M122.3,99.1H9.6l2.3-7.6h110.4V99.1z M21.3,73.8c1.9,0,3.4-1.5,3.4-3.3
			c0-1.8-1.5-3.3-3.4-3.3S18,68.7,18,70.5C18,72.4,19.5,73.8,21.3,73.8z"/>
	</g>
	<g id="ruler" class="st3">
		<path class="st2" d="M25.6,12.4L0,56.6l102.4,59L128,71.4L25.6,12.4z M100.5,108.4L7.2,54.7l20.3-35.1l7.6,4.4l-3.5,6.1l3.1,1.8
			l3.5-6.1l7.6,4.4l-7.1,12.2l3.1,1.8l7.1-12.2l7.6,4.4L53,42.4l3.1,1.8l3.5-6.1l7.6,4.4l-3.5,6.1l3.1,1.8l3.5-6.1l7.6,4.4L70,62.4
			l3.1,1.8L81,50.4l7.6,4.4l-3.5,6.1l3.1,1.8l3.5-6.1l7.6,4.4l-3.5,6.1l3.1,1.8l3.5-6.1l7.6,4.4l-7.9,13.7l3.1,1.8l7.9-13.7l7.7,4.4
			L100.5,108.4z"/>
	</g>
	<g id="eraser" class="st3">
		<path class="st2" d="M53.7,18.7l-2.2,3.8l-15.2-8.8c-8.4-4.9-19.2-2-24,6.4L2.4,37.3c-4.9,8.4-2,19.1,6.4,24L24,70l-2.2,3.8
			l74.3,42.8L128,61.5L53.7,18.7z M93.7,107.7L28.9,70.3l2.2-3.8L52,30.4l-3.8-2.2L27.3,64.3L14,56.6C7.7,53,4.4,46.8,8.1,40.5
			L18,23.4c3.6-6.3,10.6-6.6,16.9-2.9L52,30.4l2.2-3.8L119,63.9L93.7,107.7z"/>
	</g>
</g>
</svg>
