<svg xmlns="http://www.w3.org/2000/svg" viewBox="0 0 48 48">
  <title>balloon, love, heart</title>
  <g>
    <polygon points="23.001 33.997 25.001 33.997 24.001 32.664 23.001 33.997" fill="#646464"/>
    <path d="M33.9072,4.8879a8.2291,8.2291,0,0,0-9.9064,1.959,8.2283,8.2283,0,0,0-9.9074-1.959C11.11,6.469,8.51,10.6566,11.0016,17.2533c2.07,5.4831,8.5006,11.8766,11.5529,14.0058l-2.3536,3.138a1,1,0,0,0,.8,1.6h1.8515a5.9285,5.9285,0,0,0,.6281,2.8555c.46,1.0381.6914,1.56-1.1866,3.4376a1,1,0,1,0,1.4141,1.414c2.6387-2.6377,2.3067-4.0674,1.6006-5.6621a3.9307,3.9307,0,0,1-.4542-2.045h2.1466a1,1,0,0,0,.8008-1.6L25.4472,31.259c3.0522-2.1293,9.4816-8.5227,11.5518-14.0057C39.4893,10.6566,36.89,6.469,33.9072,4.8879ZM32.2333,15.0365a1,1,0,1,1-1.4141-1.4141,1.1733,1.1733,0,0,0,0-1.415,1,1,0,1,1,1.4141-1.4141A3.162,3.162,0,0,1,32.2333,15.0365Z" fill="#646464"/>
  </g>
</svg>
