<svg xmlns="http://www.w3.org/2000/svg" viewBox="0 0 48 48">
  <title>broken heart, heart, brokenhearted</title>
  <path d="M38.2637,5.2417a11.4192,11.4192,0,0,0-12.1822,1.223l-3.8335,8.16,5.3067,3.5371a1,1,0,0,1,.2773,1.3867l-4,6a1,1,0,1,1-1.664-1.1093l3.4453-5.168-5.168-3.4453a1,1,0,0,1-.3633-1.2285l3.2231-6.8893A11.52,11.52,0,0,0,9.7363,5.2417C5.543,7.4663,1.8984,13.3843,5.4336,22.7456c3.6133,9.57,16.707,21.248,18.5664,21.248s14.9531-11.6777,18.5664-21.248C46.1016,13.3843,42.457,7.4663,38.2637,5.2417Z" fill="#646464"/>
</svg>
