<svg xmlns="http://www.w3.org/2000/svg" viewBox="0 0 48 48">
  <title>camera, love, wedding, photography</title>
  <g>
    <path d="M27.8887,22.2422a2.4055,2.4055,0,0,0-3.0723.9238,1.0356,1.0356,0,0,1-1.6328,0,2.5576,2.5576,0,0,0-2.0879-1.1621,2.0952,2.0952,0,0,0-.9844.2383c-.8925.4726-1.5566,1.7461-.7441,3.8984.8672,2.293,3.5605,4.84,4.6328,5.68,1.0723-.84,3.7656-3.3887,4.6328-5.68C29.4453,23.9883,28.7813,22.7148,27.8887,22.2422Z" fill="#646464"/>
    <path d="M41,12H31.6172l-1.17-2.34A2.982,2.982,0,0,0,27.7637,8H20.2363a2.9837,2.9837,0,0,0-2.6836,1.6582L16.3828,12H7a3.0033,3.0033,0,0,0-3,3V37a3.0033,3.0033,0,0,0,3,3H41a3.0033,3.0033,0,0,0,3-3V15A3.0033,3.0033,0,0,0,41,12ZM30.5039,26.8477C29.3711,29.8438,25.1621,34,24,34s-5.3711-4.1562-6.5039-7.1523c-1.2734-3.3731.1094-5.5411,1.6777-6.3731A4.2738,4.2738,0,0,1,24,21.1074a4.275,4.275,0,0,1,4.8262-.6328C30.3945,21.3066,31.7773,23.4746,30.5039,26.8477ZM39,18H37a1,1,0,0,1,0-2h2a1,1,0,0,1,0,2Z" fill="#646464"/>
  </g>
</svg>
