<svg xmlns="http://www.w3.org/2000/svg" viewBox="0 0 48 48">
  <title>chocolate, love, romance</title>
  <g>
    <path d="M27.1621,29.1816a1.8411,1.8411,0,0,0-2.3447.72,1.0377,1.0377,0,0,1-1.6348,0,1.9682,1.9682,0,0,0-1.6035-.8985,1.5894,1.5894,0,0,0-.7412.1787c-.8691.461-1.0772,1.627-.542,3.043A13.5236,13.5236,0,0,0,24,36.8037a13.5236,13.5236,0,0,0,3.7041-4.5791C28.2393,30.8086,28.0313,29.6426,27.1621,29.1816Z" fill="#646464"/>
    <path d="M37,22H11a1,1,0,0,0-1,1V40a4.0039,4.0039,0,0,0,4,4H34a4.0039,4.0039,0,0,0,4-4V23A1,1,0,0,0,37,22ZM29.5752,32.9316C28.6758,35.3125,25.1025,39,24,39s-4.6758-3.6875-5.5752-6.0684c-1.1-2.9121.1084-4.792,1.4766-5.5175A3.7069,3.7069,0,0,1,24,27.8721a3.713,3.713,0,0,1,4.0986-.458C29.4668,28.14,30.6748,30.02,29.5752,32.9316Z" fill="#646464"/>
    <path d="M20,4H17.9922A3.9969,3.9969,0,0,0,14,7.9922V20h6Z" fill="#646464"/>
    <path d="M28,5a1,1,0,0,0-1-1H22V20h6Z" fill="#646464"/>
    <path d="M34,11a1,1,0,0,0-1-1,4.825,4.825,0,0,1-3-1.2083V20h4Z" fill="#646464"/>
  </g>
</svg>
