<svg xmlns="http://www.w3.org/2000/svg" viewBox="0 0 48 48">
  <title>cupid, love, arrow</title>
  <path d="M42.5393,5.46c-.707-.7041-4.623-.5791-6.3554.2021C33.94,6.6761,33.5707,8.428,33.9379,9.62a2.8763,2.8763,0,0,0,1.1472,1.5248l-4.1934,4.1934C23.9109,9.1431,14.7313,9.4972,5.499,16.421a1.2522,1.2522,0,0,0-.1348,1.8837L16.6451,29.5856l-5.2,5.2H8.122a1.25,1.25,0,1,0,0,2.5h2.5917v2.5918a1.25,1.25,0,0,0,2.5,0V36.5534l5.2-5.2L29.6938,42.6343a1.2538,1.2538,0,0,0,.8848.3662c.0293,0,.0586-.0009.0879-.0029a1.2528,1.2528,0,0,0,.9121-.497c6.925-9.2328,7.2795-18.4129,1.0817-25.3938l4.1933-4.1933a2.877,2.877,0,0,0,1.5256,1.1491,2.8254,2.8254,0,0,0,.8281.1231,3.4876,3.4876,0,0,0,3.1308-2.37C43.1213,10.0813,43.2443,6.16,42.5393,5.46ZM18.4132,27.8176l-10.24-10.24c7.8116-5.3693,15.1678-5.5272,20.9529-.4725ZM30.4223,39.8268l-10.241-10.241L30.894,18.8731C35.95,24.6606,35.7923,32.0174,30.4223,39.8268Z" fill="#646464"/>
</svg>
