<svg xmlns="http://www.w3.org/2000/svg" viewBox="0 0 48 48">
  <title>diamond, jewel, ring</title>
  <g>
    <polygon points="16.22 19.031 4.516 19.031 21.622 40.638 16.22 19.031" fill="#646464"/>
    <polygon points="29.72 19.031 18.28 19.031 24 41.908 29.72 19.031" fill="#646464"/>
    <polygon points="18.831 17.031 29.169 17.031 24 8.991 18.831 17.031" fill="#646464"/>
    <polygon points="15.132 17.031 9.501 8.585 4.434 17.031 15.132 17.031" fill="#646464"/>
    <path d="M16.9844,16.2056,22.8113,7.142,22.74,7.0309H11c-.04,0-.0729.0249-.1119.0295Z" fill="#646464"/>
    <polygon points="31.78 19.031 26.378 40.638 43.484 19.031 31.78 19.031" fill="#646464"/>
    <path d="M25.1887,7.142l5.8269,9.0636L37.1118,7.06c-.039-.0046-.072-.0295-.1119-.0295H25.26Z" fill="#646464"/>
    <polygon points="32.868 17.031 43.566 17.031 38.499 8.585 32.868 17.031" fill="#646464"/>
  </g>
</svg>
