<svg xmlns="http://www.w3.org/2000/svg" viewBox="0 0 48 48">
  <title>home, love, house</title>
  <g>
    <path d="M23.1826,27.9026a1.9694,1.9694,0,0,0-1.6035-.8984,1.5829,1.5829,0,0,0-.7412.1777c-.8691.4609-1.0772,1.6269-.542,3.043A13.5207,13.5207,0,0,0,24,34.803a13.5207,13.5207,0,0,0,3.7041-4.5781c.5352-1.4161.3272-2.5821-.542-3.043a1.84,1.84,0,0,0-2.3447.7207A1.0377,1.0377,0,0,1,23.1826,27.9026Z" fill="#646464"/>
    <path d="M8,24.6586V41a.9994.9994,0,0,0,1,1H39a.9994.9994,0,0,0,1-1V24.6591l-16-10.11Zm20.0986.7557c1.3682.7266,2.5762,2.6055,1.4766,5.5176C28.6758,33.3127,25.1016,37,24,37s-4.6758-3.6875-5.5752-6.0683c-1.1-2.9121.1084-4.791,1.4766-5.5176A3.7131,3.7131,0,0,1,24,25.8733,3.7064,3.7064,0,0,1,28.0986,25.4143Z" fill="#646464"/>
    <path d="M43.5342,18.1545l-19-12a.9967.9967,0,0,0-1.0684,0l-19,12A1,1,0,0,0,4,19v4a1.0011,1.0011,0,0,0,1.5342.8457L24,12.1838,42.4658,23.8459A1.0011,1.0011,0,0,0,44,23V19A1,1,0,0,0,43.5342,18.1545Z" fill="#646464"/>
  </g>
</svg>
