<svg xmlns="http://www.w3.org/2000/svg" viewBox="0 0 48 48">
  <title>key, love, lock</title>
  <path d="M43.63,9.7359,40.0673,6.1734a1.25,1.25,0,0,0-1.7676,0L22.1561,22.316c-2.8057-.51-9.3022-.4334-13.0683,1.2655C4.3232,25.7358,3.5,29.3237,4.2431,31.7436A6.1472,6.1472,0,0,0,10.2079,35.97h.0176a6.1506,6.1506,0,0,0,4.2285,5.9844,5.5129,5.5129,0,0,0,1.6143.2383c2.2168,0,4.8349-1.2969,6.5459-5.084,1.688-3.7354,1.7748-10.1455,1.2771-12.991L34.9085,13.1007l2.7672,2.768a1.2492,1.2492,0,1,0,1.7676-1.7657l-2.7682-2.7689,2.5084-2.5084,2.6787,2.68A1.2506,1.2506,0,1,0,43.63,9.7359Z" fill="#646464"/>
</svg>
