<svg xmlns="http://www.w3.org/2000/svg" viewBox="0 0 48 48">
  <title>lock, love, heart</title>
  <path d="M35.1729,16.9336A9.0933,9.0933,0,0,0,32,16.0713V12a8,8,0,0,0-16,0v4.0728a9.1153,9.1153,0,0,0-3.1729.8608C9.5293,18.5684,6.5488,22.7764,9.001,29.2568,12.1992,37.71,22.4873,44,24,44s11.8008-6.29,14.999-14.7432C41.4512,22.7764,38.4707,18.5684,35.1729,16.9336ZM24,6a6.0066,6.0066,0,0,1,6,6v4.095a9.0991,9.0991,0,0,0-6,3.2068,9.0909,9.0909,0,0,0-6-3.2055V12A6.0066,6.0066,0,0,1,24,6Zm1,26a1,1,0,0,1-2,0V28a1,1,0,0,1,2,0Z" fill="#646464"/>
</svg>
