<svg xmlns="http://www.w3.org/2000/svg" viewBox="0 0 48 48">
  <title>love, wedding, date, calendar</title>
  <g>
    <path d="M24,33.82c1.0723-.84,3.7666-3.3887,4.6318-5.68.8135-2.1523.15-3.4258-.7431-3.8984a2.4017,2.4017,0,0,0-3.0713.9238,1.0376,1.0376,0,0,1-1.6348,0,2.5569,2.5569,0,0,0-2.0859-1.1621,2.0963,2.0963,0,0,0-.9854.2383c-.8925.4726-1.5566,1.7461-.7431,3.8984C20.2334,30.4316,22.9277,32.9805,24,33.82Z" fill="#646464"/>
    <path d="M4,39a3.0033,3.0033,0,0,0,3,3H41a3.0033,3.0033,0,0,0,3-3V16H4ZM19.1738,22.4746A4.2723,4.2723,0,0,1,24,23.1074a4.2794,4.2794,0,0,1,4.8262-.6328c1.5693.832,2.95,3,1.6767,6.3731C29.3711,31.8438,25.1621,36,24,36s-5.3711-4.1562-6.5029-7.1523C16.2236,25.4746,17.6045,23.3066,19.1738,22.4746Z" fill="#646464"/>
    <path d="M41,8H36V9a1,1,0,0,1-2,0V7a1,1,0,0,0-2,0V8H18V9a1,1,0,0,1-2,0V7a1,1,0,0,0-2,0V8H7a3.0033,3.0033,0,0,0-3,3v3H44V11A3.0033,3.0033,0,0,0,41,8Z" fill="#646464"/>
  </g>
</svg>
