<svg xmlns="http://www.w3.org/2000/svg" viewBox="0 0 48 48">
  <title>love, card, wedding, invitation</title>
  <g>
    <path d="M27.1621,24.1817a1.8412,1.8412,0,0,0-2.3447.7207,1.0377,1.0377,0,0,1-1.6348,0,1.97,1.97,0,0,0-1.6035-.8985,1.5817,1.5817,0,0,0-.7412.1778c-.8691.4609-1.0772,1.6269-.542,3.0429A13.52,13.52,0,0,0,24,31.8028a13.5229,13.5229,0,0,0,3.7051-4.5782C28.24,25.8086,28.0313,24.6426,27.1621,24.1817Z" fill="#646464"/>
    <path d="M37,12H11a1,1,0,0,0-1,1V43a.9994.9994,0,0,0,1,1H37a.9994.9994,0,0,0,1-1V13A1,1,0,0,0,37,12ZM29.5762,27.9317C28.6758,30.3125,25.1016,34,24,34s-4.6758-3.6875-5.5752-6.0683c-1.1-2.9121.1084-4.791,1.4766-5.5176A3.7106,3.7106,0,0,1,24,22.8731a3.7076,3.7076,0,0,1,4.1-.459C29.4668,23.1407,30.6758,25.02,29.5762,27.9317Z" fill="#646464"/>
    <path d="M32,5a.9978.9978,0,0,0-1.2871-.957L10.8561,10H32Z" fill="#646464"/>
  </g>
</svg>
