<svg xmlns="http://www.w3.org/2000/svg" viewBox="0 0 48 48">
  <title>love, letter, invitation, wedding</title>
  <g>
    <path d="M18.08,22.6a3.8326,3.8326,0,0,1,1.8226-4.1855A3.7054,3.7054,0,0,1,24,18.8721a3.7161,3.7161,0,0,1,4.0977-.458A3.8326,3.8326,0,0,1,29.92,22.6L44,16.2554V13a5.0053,5.0053,0,0,0-5-5H9a5.0053,5.0053,0,0,0-5,5v3.2554Z" fill="#646464"/>
    <path d="M28.8765,25.2628C27.4943,27.4822,24.911,30,24,30s-3.4943-2.5178-4.8765-4.7372L4,18.4482V35a5.0053,5.0053,0,0,0,5,5H39a5.0053,5.0053,0,0,0,5-5V18.4482Z" fill="#646464"/>
    <path d="M24.8184,20.9014a1.04,1.04,0,0,1-1.6368,0,1.9649,1.9649,0,0,0-1.6015-.8985,1.5846,1.5846,0,0,0-.7422.1787c-.8691.461-1.0781,1.627-.543,3.043A13.52,13.52,0,0,0,24,27.8037a13.52,13.52,0,0,0,3.7051-4.5791c.5351-1.416.3262-2.582-.543-3.043A1.8407,1.8407,0,0,0,24.8184,20.9014Z" fill="#646464"/>
  </g>
</svg>
