<svg xmlns="http://www.w3.org/2000/svg" viewBox="0 0 48 48">
  <title>love, gift, present</title>
  <g>
    <path d="M8,38.9989a3,3,0,0,0,3,3H37a3,3,0,0,0,3-3v-19H8ZM19.9014,25.413A3.7047,3.7047,0,0,1,24,25.871a3.71,3.71,0,0,1,4.0986-.458c1.3682.7255,2.5762,2.6054,1.4766,5.5175-.8994,2.3809-4.4727,6.0684-5.5752,6.0684s-4.6758-3.6875-5.5752-6.0684C17.3252,28.0184,18.5332,26.1385,19.9014,25.413Z" fill="#646464"/>
    <path d="M24,34.8026a13.5236,13.5236,0,0,0,3.7041-4.5791c.5352-1.416.3272-2.582-.542-3.043a1.8405,1.8405,0,0,0-2.3447.72,1.0377,1.0377,0,0,1-1.6348,0,1.9682,1.9682,0,0,0-1.6035-.8985,1.5894,1.5894,0,0,0-.7412.1787c-.8691.461-1.0772,1.627-.542,3.043A13.5236,13.5236,0,0,0,24,34.8026Z" fill="#646464"/>
    <path d="M41,11.9989H32.0463a3.4859,3.4859,0,0,0,.5182-.5068A3.0346,3.0346,0,0,0,32.9482,8.6c-.6582-1.9766-1.76-2.4971-2.5683-2.586-2.33-.2156-4.9837,3.0579-6.377,5.0683C22.62,9.0709,19.9823,5.7964,17.62,6.0135c-.8086.0889-1.91.6094-2.5683,2.586a3.0346,3.0346,0,0,0,.3837,2.8926,3.4859,3.4859,0,0,0,.5182.5068H7a1,1,0,0,0-1,1v4a1,1,0,0,0,1,1H41a1,1,0,0,0,1-1v-4A1,1,0,0,0,41,11.9989ZM17.043,10.3016a1.0579,1.0579,0,0,1-.0948-1.0693c.1465-.44.4571-1.1826.89-1.2305a.6475.6475,0,0,1,.0762-.0039c.9453,0,2.7089,1.7823,4.1963,3.8623C20.1582,11.7137,17.7637,11.2743,17.043,10.3016Zm13.915-.0009c-.6816.9209-2.98,1.4091-5.0713,1.5644,1.4873-2.083,3.2529-3.8672,4.1992-3.8672a.6475.6475,0,0,1,.0762.0039c.4326.0479.7432.791.89,1.2305A1.06,1.06,0,0,1,30.958,10.3007Z" fill="#646464"/>
  </g>
</svg>
