<svg xmlns="http://www.w3.org/2000/svg" viewBox="0 0 48 48">
  <title>love, book, wedding</title>
  <g>
    <path d="M11,10H35a1,1,0,0,0,1-1V5a1,1,0,0,0-1-1H11a3,3,0,0,0,0,6Z" fill="#646464"/>
    <path d="M27.8887,23.2422a2.4048,2.4048,0,0,0-3.0713.9238,1.0376,1.0376,0,0,1-1.6348,0,2.5569,2.5569,0,0,0-2.0859-1.1621,2.0963,2.0963,0,0,0-.9854.2383c-.8925.4726-1.5566,1.7461-.7431,3.8984.8652,2.291,3.56,4.84,4.6318,5.68,1.0723-.84,3.7676-3.3887,4.6328-5.68C29.4453,24.9883,28.7813,23.7148,27.8887,23.2422Z" fill="#646464"/>
    <path d="M39,12H11a4.9524,4.9524,0,0,1-3-1.0253V40a4.0045,4.0045,0,0,0,4,4H39a1,1,0,0,0,1-1V13A1,1,0,0,0,39,12ZM30.5039,27.8477C29.3711,30.8438,25.1621,35,24,35s-5.3711-4.1562-6.5029-7.1523c-1.2735-3.3731.1074-5.5411,1.6767-6.3731A4.2722,4.2722,0,0,1,24,22.1074a4.2641,4.2641,0,0,1,4.8262-.6328C30.3945,22.3066,31.7773,24.4746,30.5039,27.8477Z" fill="#646464"/>
  </g>
</svg>
