<svg xmlns="http://www.w3.org/2000/svg" viewBox="0 0 48 48">
  <title>love, chat, message</title>
  <g>
    <path d="M27.8887,17.2412a2.4017,2.4017,0,0,0-3.0713.9258,1.0377,1.0377,0,0,1-1.6348,0,2.5559,2.5559,0,0,0-2.0869-1.1631,2.1065,2.1065,0,0,0-.9844.2373c-.8925.4727-1.5566,1.7461-.7431,3.8994.8652,2.291,3.56,4.84,4.6318,5.6787,1.0723-.8388,3.7666-3.3877,4.6318-5.6787C29.4453,18.9873,28.7813,17.7139,27.8887,17.2412Z" fill="#646464"/>
    <path d="M39,7H9a5.0059,5.0059,0,0,0-5,5V32a5.0059,5.0059,0,0,0,5,5h9v5a1,1,0,0,0,1.6.8L27.333,37H39a5.0059,5.0059,0,0,0,5-5V12A5.0059,5.0059,0,0,0,39,7ZM30.5029,21.8477C29.3721,24.8438,25.1621,29,24,29s-5.3721-4.1562-6.5029-7.1523c-1.2735-3.3731.1074-5.5411,1.6777-6.3741A4.2744,4.2744,0,0,1,24,16.1084a4.2755,4.2755,0,0,1,4.8252-.6348C30.3955,16.3066,31.7764,18.4746,30.5029,21.8477Z" fill="#646464"/>
  </g>
</svg>
