<svg xmlns="http://www.w3.org/2000/svg" viewBox="0 0 48 48">
  <title>love, wedding, location, romance</title>
  <g>
    <path d="M28.6143,16.3008a2.9647,2.9647,0,0,0-3.7969,1.1308,1.0376,1.0376,0,0,1-1.6348,0,3.1471,3.1471,0,0,0-2.5693-1.4277,2.6272,2.6272,0,0,0-1.2276.2969c-1.1044.5859-1.9326,2.1426-.9462,4.7558C19.4834,23.8184,22.8037,26.92,24,27.832c1.1963-.9121,4.5176-4.0136,5.5605-6.7754C30.5469,18.4434,29.7188,16.8867,28.6143,16.3008Z" fill="#646464"/>
    <path d="M24,4A16.0183,16.0183,0,0,0,8,20C8,31.4375,22.2461,44,24,44S40,31.4375,40,20A16.0183,16.0183,0,0,0,24,4Zm7.4316,17.7637C30.084,25.33,25.1563,30,24,30s-6.084-4.67-7.4316-8.2363c-1.4473-3.834.1084-6.291,1.8808-7.23A4.843,4.843,0,0,1,24,15.35a4.8342,4.8342,0,0,1,5.5508-.8164C31.3232,15.4727,32.8789,17.93,31.4316,21.7637Z" fill="#646464"/>
  </g>
</svg>
