<svg xmlns="http://www.w3.org/2000/svg" viewBox="0 0 48 48">
  <title>ring, engagement, wedding</title>
  <path d="M37,6H31a1,1,0,0,0-1,1V24H25.9088A6.4161,6.4161,0,0,0,26,23a6.9864,6.9864,0,0,0-4.9331-6.6528l2.64-2.64a.9994.9994,0,0,0,0-1.414l-2-2A.9993.9993,0,0,0,21,10H17a.9993.9993,0,0,0-.707.293l-2,2a.9994.9994,0,0,0,0,1.414l2.64,2.64A6.9864,6.9864,0,0,0,12,23a6.4161,6.4161,0,0,0,.0912,1H7a1,1,0,0,0-1,1V37a5.0053,5.0053,0,0,0,5,5H27a5.0053,5.0053,0,0,0,5-5V26h5a5.0053,5.0053,0,0,0,5-5V11A5.0053,5.0053,0,0,0,37,6ZM14,23a5,5,0,0,1,10,0,4.5811,4.5811,0,0,1-.1284,1H14.1284A4.5811,4.5811,0,0,1,14,23Z" fill="#646464"/>
</svg>
